<?xml version="1.0" encoding="UTF-8"?>
<!DOCTYPE svg PUBLIC "-//W3C//DTD SVG 1.1//EN" "http://www.w3.org/Graphics/SVG/1.1/DTD/svg11.dtd">
<!-- Creator: CorelDRAW (Evaluation Version) -->
<svg xmlns="http://www.w3.org/2000/svg" xml:space="preserve" width="24px" height="24px" version="1.1" style="shape-rendering:geometricPrecision; text-rendering:geometricPrecision; image-rendering:optimizeQuality; fill-rule:evenodd; clip-rule:evenodd"
viewBox="0 0 24 24"
 xmlns:xlink="http://www.w3.org/1999/xlink"
 xmlns:xodm="http://www.corel.com/coreldraw/odm/2003">
 <defs>
  <style type="text/css">
   <![CDATA[
    .str0 {stroke:black;stroke-miterlimit:22.9256}
    .fil0 {fill:black}
   ]]>
  </style>
 </defs>
 <g id="Layer_x0020_1">
  <metadata id="CorelCorpID_0Corel-Layer"/>
  <path class="fil0 str0" d="M4.5 2.5l15 0c1.1,0 2,0.9 2,2l0 1 -19 0 0 -1c0,-1.1 0.9,-2 2,-2zm17 5l0 12c0,1.1 -0.9,2 -2,2l-15 0c-1.1,0 -2,-0.9 -2,-2l0 -12 19 0zm-13.5 2l2 0c0.83,0 1.5,0.67 1.5,1.5l0 6c0,0.83 -0.67,1.5 -1.5,1.5l-2 0c-0.83,0 -1.5,-0.67 -1.5,-1.5l0 -6c0,-0.83 0.67,-1.5 1.5,-1.5z"/>
 </g>
</svg>
